<?xml version="1.0" standalone="no"?>
<!DOCTYPE svg PUBLIC "-//W3C//DTD SVG 20010904//EN"
 "http://www.w3.org/TR/2001/REC-SVG-20010904/DTD/svg10.dtd">
<svg version="1.0" xmlns="http://www.w3.org/2000/svg"
 viewBox="0 0 386.195827 373.821324"
 preserveAspectRatio="xMidYMid meet">
<metadata>
Created by potrace 1.16, written by Peter Selinger 2001-2019
</metadata>
<g transform="translate(-22.030153,405.864604) scale(0.100000,-0.100000)"
fill="#fff">
<path d="M1330 4057 c-100 4 -119 2 -145 -15 -16 -10 -36 -26 -44 -35 -7 -10
-17 -17 -21 -17 -5 0 -25 -16 -46 -36 -22 -20 -48 -44 -59 -54 -11 -10 -63
-54 -115 -99 -52 -45 -99 -86 -105 -91 -5 -6 -52 -46 -102 -90 -51 -45 -93
-78 -93 -75 0 3 -14 -10 -31 -30 -17 -19 -35 -35 -41 -35 -5 0 -21 -14 -35
-30 -13 -17 -29 -28 -34 -24 -5 3 -11 -1 -14 -8 -4 -10 -29 -12 -96 -11 -83 2
-93 1 -110 -20 -17 -20 -18 -43 -19 -263 0 -220 2 -244 18 -265 19 -22 22 -22
251 -24 212 -1 233 0 251 17 14 13 20 32 20 63 0 26 -6 50 -16 59 -13 13 -43
16 -174 16 -87 0 -165 3 -174 6 -13 5 -16 24 -16 109 0 57 3 110 6 119 5 14
41 16 300 16 l294 0 0 -1380 0 -1380 -126 0 c-69 0 -134 -5 -145 -10 -15 -9
-19 -22 -19 -65 0 -44 4 -57 22 -69 20 -14 96 -16 620 -16 l597 1 30 25 c24
19 29 31 26 56 -3 17 -11 41 -20 54 -15 23 -20 24 -140 24 l-125 0 0 1380 0
1380 580 0 579 0 3 -309 3 -310 35 -36 c19 -20 59 -47 88 -61 32 -15 61 -38
73 -57 15 -23 19 -44 16 -74 -3 -32 -13 -50 -38 -74 -23 -22 -47 -33 -75 -37
-26 -3 -52 2 -73 13 -18 9 -38 30 -46 48 -7 18 -12 36 -12 40 1 5 -9 15 -23
22 -14 8 -39 14 -56 15 -18 0 -38 -8 -49 -20 -10 -11 -17 -34 -17 -57 0 -21 6
-52 13 -68 7 -17 13 -33 13 -37 1 -3 13 -16 29 -28 15 -12 27 -28 27 -35 0 -8
-20 -28 -44 -45 -25 -16 -47 -30 -50 -30 -3 0 -17 -10 -32 -22 -14 -13 -29
-23 -33 -23 -4 0 -15 -8 -25 -17 -9 -10 -51 -41 -93 -70 -42 -29 -77 -51 -77
-49 -1 3 -16 -10 -35 -27 -19 -17 -38 -29 -42 -27 -4 3 -10 -2 -13 -11 -3 -8
-10 -12 -16 -9 -6 3 -13 -1 -16 -9 -3 -9 -12 -16 -19 -16 -7 0 -15 -6 -18 -14
-4 -10 -31 -14 -104 -15 -71 -1 -102 -6 -113 -17 -13 -13 -16 -93 -20 -561
l-5 -547 25 -30 25 -31 975 3 974 2 32 22 c28 19 31 27 34 82 2 34 3 272 2
531 -2 280 -7 483 -13 501 -6 19 -19 34 -32 38 -12 3 -63 6 -112 6 -68 0 -97
4 -115 17 -14 9 -28 22 -32 27 -4 6 -8 8 -8 4 0 -5 -60 29 -132 73 -73 45
-135 85 -138 89 -3 5 -9 9 -15 10 -5 1 -66 36 -135 77 -69 41 -127 79 -130 83
-3 5 -8 7 -12 7 -4 -1 -16 6 -27 15 -11 9 -23 13 -28 10 -4 -4 2 4 14 18 12
14 30 43 39 65 9 22 19 60 21 84 2 24 4 46 5 50 1 3 -2 24 -7 46 -4 22 -16 56
-26 75 -9 20 -37 54 -61 75 -23 22 -60 49 -81 60 l-38 20 1 258 c1 142 4 265
7 273 4 11 34 14 154 14 l149 0 17 -27 c10 -16 31 -39 46 -52 15 -13 26 -25
24 -28 -3 -2 15 -25 40 -49 25 -25 57 -50 73 -54 24 -7 33 -3 57 22 20 21 27
37 24 56 -1 15 -7 35 -13 45 -5 10 -32 44 -60 75 -27 31 -73 81 -102 111 -28
30 -51 53 -51 52 0 -2 -18 2 -40 8 -23 6 -119 10 -221 9 -177 -1 -182 0 -225
25 -24 14 -80 40 -124 58 -44 18 -82 36 -85 39 -3 3 -12 6 -20 8 -8 2 -170 69
-360 150 -190 80 -347 149 -350 153 -3 4 -7 7 -10 6 -3 0 -29 8 -57 18 -29 10
-53 23 -53 27 0 4 -3 7 -7 6 -5 -1 -32 6 -60 17 -29 10 -53 23 -53 27 0 4 -3
7 -7 6 -5 -2 -36 8 -70 21 -35 13 -63 28 -63 33 0 5 -4 7 -9 4 -5 -3 -35 6
-67 21 -51 23 -75 27 -174 30z m2 -160 c28 -4 52 -8 54 -10 2 -2 19 -88 39
-193 20 -104 41 -211 48 -239 l13 -50 -133 0 c-73 1 -135 4 -139 8 -4 3 3 71
15 149 12 79 25 150 28 158 3 8 5 21 4 29 -1 7 3 45 9 83 l12 71 50 -6z m243
-71 c11 -2 171 -67 355 -146 184 -79 337 -147 340 -151 3 -4 10 -7 15 -7 6 0
67 -24 137 -53 69 -30 125 -55 123 -57 -2 -2 -204 -4 -450 -4 -246 0 -449 3
-452 5 -3 3 -24 98 -47 210 -42 201 -42 205 -21 203z m-483 -72 c4 -3 8 -14 8
-24 0 -10 -4 -21 -10 -25 -5 -3 -7 -11 -4 -18 2 -7 -5 -58 -16 -112 -11 -55
-21 -112 -23 -127 -2 -15 -6 -30 -9 -33 -3 -4 -81 -7 -172 -7 -91 -1 -168 1
-171 4 -4 3 9 16 27 29 18 13 39 31 46 41 7 10 18 18 23 18 6 0 22 14 36 30
13 17 31 30 38 30 8 0 23 14 35 30 12 17 25 30 28 30 4 0 41 31 82 69 41 38
78 67 82 65z m247 -515 l201 2 0 -180 c0 -100 -4 -181 -9 -181 -4 0 -21 10
-37 22 -16 12 -33 28 -37 35 -5 8 -12 11 -18 8 -5 -4 -12 1 -15 9 -3 9 -13 16
-20 16 -8 0 -17 7 -20 15 -4 8 -11 15 -18 15 -6 0 -33 19 -59 43 -26 23 -71
60 -99 82 -28 22 -57 50 -65 62 -9 13 -13 29 -10 36 4 11 48 14 206 16z m-148
-302 c27 -23 49 -45 49 -49 0 -5 6 -8 13 -8 6 0 36 -23 66 -50 30 -28 56 -50
58 -50 3 0 22 -15 43 -32 22 -18 40 -37 40 -42 0 -4 -28 -35 -62 -67 -33 -32
-65 -56 -70 -53 -4 3 -11 -2 -14 -10 -3 -8 -30 -33 -60 -56 -30 -22 -54 -38
-54 -34 0 3 -9 -4 -20 -17 -10 -13 -19 -20 -20 -15 0 6 -6 1 -14 -10 -13 -17
-15 14 -16 252 0 148 2 273 6 277 3 3 28 -13 55 -36z m346 -387 c1 0 2 -132 2
-292 0 -287 0 -293 -19 -270 -10 12 -22 22 -26 22 -4 0 -28 17 -53 37 -25 20
-56 46 -69 57 -13 12 -37 35 -54 51 -17 17 -34 29 -38 28 -4 -1 -24 16 -45 39
l-39 40 34 30 c19 17 53 47 75 67 22 20 63 56 91 79 29 23 54 42 57 42 3 0 23
16 44 35 21 19 39 35 40 35z m1447 -430 c5 0 55 -28 110 -62 56 -34 103 -65
104 -70 2 -4 10 -8 18 -8 8 0 14 -5 14 -11 0 -5 5 -7 10 -4 6 3 13 0 16 -8 2
-7 10 -14 17 -14 7 0 57 -28 112 -63 55 -35 102 -67 103 -72 2 -4 8 -6 12 -3
5 3 11 1 15 -5 4 -6 -165 -10 -496 -10 -276 0 -500 2 -498 4 2 3 6 4 9 3 3 0
20 14 39 31 19 17 37 30 39 28 2 -2 15 7 29 20 14 13 30 24 34 24 4 0 19 10
33 23 13 12 37 29 53 37 15 8 30 18 33 21 3 3 31 24 63 48 31 23 57 39 57 37
0 -3 15 8 32 25 18 16 37 29 42 29z m-1848 -40 c3 0 45 -30 93 -67 47 -37 102
-82 121 -99 19 -18 54 -49 78 -69 l43 -38 -22 -23 c-12 -13 -24 -22 -26 -21
-2 2 -24 -16 -50 -39 -26 -24 -49 -41 -51 -39 -3 2 -14 -7 -24 -21 -11 -14
-22 -23 -24 -21 -3 2 -24 -13 -47 -34 -23 -22 -47 -39 -53 -39 -7 0 -15 -7
-18 -16 -3 -8 -10 -12 -16 -9 -6 4 -10 104 -10 271 0 145 3 264 6 264z m412
-431 c1 1 2 -125 2 -279 0 -262 -1 -279 -17 -273 -10 4 -38 22 -63 42 -25 19
-54 43 -65 53 -11 10 -44 36 -72 58 -29 22 -53 45 -53 50 0 6 -6 10 -13 10 -7
0 -25 13 -40 28 l-27 28 54 50 c30 28 100 89 157 136 57 47 111 88 119 91 8 3
16 6 18 6z m736 -19 c75 0 95 -3 100 -15 3 -9 5 -185 5 -393 -1 -207 -2 -394
-3 -414 l-1 -38 -96 0 c-68 0 -98 4 -102 13 -2 6 -3 199 -2 427 2 228 3 416 4
418 1 1 43 2 95 2z m387 0 l99 0 0 -430 0 -431 -105 3 -106 3 1 412 c0 227 3
419 6 428 5 12 26 15 105 15z m396 -1 l93 -2 -1 -429 -1 -429 -107 3 -106 3
-2 415 c-2 383 -1 416 15 428 11 9 47 12 109 11z m348 0 c58 1 106 1 106 -1 1
-2 3 -196 5 -431 l4 -428 -110 2 -110 1 0 428 0 428 105 1z m385 0 c96 2 100
1 105 -21 3 -13 4 -205 3 -428 l-3 -405 -105 -3 -105 -3 0 421 c0 231 4 420 8
420 5 0 6 4 3 9 -3 5 39 9 94 10z m-2651 -439 c11 -5 36 -26 57 -45 20 -19 40
-35 44 -35 4 0 23 -17 41 -38 19 -22 39 -40 44 -41 6 -2 38 -28 72 -59 47 -43
59 -59 51 -69 -5 -7 -14 -10 -19 -7 -5 3 -9 1 -9 -4 0 -5 -25 -28 -55 -51 -30
-22 -59 -41 -65 -41 -5 0 -10 -4 -10 -8 0 -5 -36 -36 -79 -70 -44 -33 -82 -58
-85 -54 -3 3 -6 124 -6 269 0 257 0 263 19 253z m396 -410 c2 0 3 -66 2 -147
l-2 -148 -172 -3 c-95 -1 -173 1 -173 6 0 5 34 37 75 71 41 33 76 61 79 61 2
0 23 18 47 39 23 22 46 38 50 36 4 -3 14 7 24 21 9 14 19 23 22 20 3 -3 14 6
25 19 11 14 21 25 23 25z"/>
</g>
</svg>
